<svg xmlns="http://www.w3.org/2000/svg" viewBox="0 0 1200 800" preserveAspectRatio="xMidYMid meet">
  <defs>
    <linearGradient id="bg" x1="0" x2="1" y1="0" y2="1">
      <stop offset="0" stop-color="#0b2a66"/>
      <stop offset="0.55" stop-color="#12418b"/>
      <stop offset="1" stop-color="#1a5aa6"/>
    </linearGradient>
    <linearGradient id="shield" x1="0" x2="1" y1="0" y2="1">
      <stop offset="0" stop-color="#8be0ff"/>
      <stop offset="1" stop-color="#4fc3ff"/>
    </linearGradient>
  </defs>
  <rect width="1200" height="800" fill="url(#bg)"/>
  <g opacity="0.35" stroke="#89c7ff" stroke-width="2">
    <path d="M160 180 L420 300 L620 220 L900 360" fill="none"/>
    <path d="M260 520 L540 430 L820 560" fill="none"/>
    <circle cx="160" cy="180" r="8" fill="#9bd9ff"/>
    <circle cx="420" cy="300" r="8" fill="#9bd9ff"/>
    <circle cx="620" cy="220" r="8" fill="#9bd9ff"/>
    <circle cx="900" cy="360" r="8" fill="#9bd9ff"/>
    <circle cx="260" cy="520" r="8" fill="#9bd9ff"/>
    <circle cx="540" cy="430" r="8" fill="#9bd9ff"/>
    <circle cx="820" cy="560" r="8" fill="#9bd9ff"/>
  </g>
  <g transform="translate(520 210)">
    <path
      d="M80 20 L160 20 L220 60 L220 170 Q220 260 120 320 Q20 260 20 170 L20 60 Z"
      fill="url(#shield)"
      opacity="0.95"
    />
    <circle cx="120" cy="160" r="44" fill="#0b2a66" opacity="0.45"/>
    <rect x="106" y="150" width="28" height="44" rx="6" fill="#0b2a66" opacity="0.65"/>
    <circle cx="120" cy="148" r="18" fill="#0b2a66" opacity="0.65"/>
  </g>
  <g opacity="0.2">
    <circle cx="160" cy="620" r="120" fill="#78d3ff"/>
    <circle cx="1020" cy="120" r="140" fill="#6bc8ff"/>
  </g>
</svg>

